<?xml version="1.0" standalone="no"?>
<!DOCTYPE svg PUBLIC "-//W3C//DTD SVG 20010904//EN"
 "http://www.w3.org/TR/2001/REC-SVG-20010904/DTD/svg10.dtd">
<svg version="1.0" xmlns="http://www.w3.org/2000/svg"
 width="260.000000pt" height="260.000000pt" viewBox="0 0 260.000000 260.000000"
 preserveAspectRatio="xMidYMid meet">
<metadata>
Created by potrace 1.14, written by Peter Selinger 2001-2017
</metadata>
<g transform="translate(0.000000,260.000000) scale(0.100000,-0.100000)"
fill="#000000" stroke="none">
<path d="M375 1801 c-100 -21 -149 -44 -201 -96 -50 -51 -74 -117 -73 -204 0
-80 23 -140 70 -188 60 -62 133 -90 379 -148 166 -38 230 -83 230 -159 0 -100
-81 -148 -249 -147 -126 1 -214 44 -245 121 l-16 41 -48 -6 c-27 -3 -57 -7
-68 -9 -10 -2 -38 -7 -61 -11 -51 -8 -52 -16 -18 -88 71 -151 225 -224 465
-221 181 2 294 36 375 110 116 106 120 326 8 431 -60 57 -132 84 -397 147
-113 27 -168 53 -187 88 -40 75 -3 155 85 179 22 7 74 11 115 10 111 -1 182
-42 205 -119 6 -19 13 -22 39 -17 37 6 169 25 180 25 14 0 6 42 -18 95 -42 87
-117 142 -230 165 -94 20 -249 20 -340 1z"/>
<path d="M1168 1802 l-96 -3 74 -287 c41 -158 104 -405 141 -550 l67 -262 138
0 c76 0 138 2 138 4 0 3 27 120 60 261 34 142 78 334 99 427 l37 170 13 -68
c14 -79 127 -574 141 -619 5 -16 11 -41 14 -55 4 -27 15 -75 23 -102 4 -16 19
-18 141 -18 l137 0 34 133 c18 72 46 182 62 242 33 126 129 492 134 515 1 8
11 44 20 80 9 36 18 72 20 80 2 8 6 23 10 32 6 14 -4 17 -77 20 -46 2 -99 2
-119 0 l-36 -3 -32 -152 c-18 -84 -57 -264 -88 -402 -67 -305 -61 -276 -62
-299 -1 -23 -14 -13 -16 12 -1 9 -7 44 -13 77 -6 33 -13 71 -16 85 -8 43 -46
210 -76 330 -15 63 -40 168 -55 232 l-27 117 -125 3 c-75 2 -128 -1 -133 -7
-4 -5 -10 -23 -13 -40 -3 -16 -15 -70 -27 -120 -12 -49 -23 -97 -25 -105 -2
-8 -21 -94 -44 -190 -22 -96 -43 -188 -46 -205 -24 -123 -43 -198 -48 -185 -5
12 -76 324 -93 410 -3 14 -19 86 -36 160 -41 180 -47 209 -54 247 -8 37 -14
39 -146 35z"/>
</g>
</svg>
